{"asset":{"version":"2.0","generator":"Blockbench 4.10.4 glTF exporter"},"scenes":[{"nodes":[8],"name":"blockbench_export"}],"scene":0,"nodes":[{"translation":[-2.2222222222222223,12.222222222222223,-2.2222222222222223],"name":"bone"},{"translation":[5.555555555555555,6.666666666666667,-1.1111111111111112],"name":"plane2"},{"translation":[-10,-1.1111111111111112,-3.3333333333333335],"name":"cube","mesh":0},{"rotation":[0,0.7071067811865475,0,0.7071067811865476],"translation":[-11.11111111111111,-6.666666666666667,1.1111111111111112],"name":"plane","mesh":1},{"rotation":[0,0.7071067811865475,0,0.7071067811865476],"translation":[0,-6.666666666666667,1.1111111111111112],"name":"plane","mesh":2},{"translation":[-5.555555555555555,-6.666666666666667,-4.444444444444445],"name":"plane","mesh":3},{"rotation":[0,-1,0,6.123233995736766e-17],"translation":[-5.555555555555555,-6.666666666666667,6.666666666666667],"name":"plane","mesh":4},{"translation":[5.555555555555555,6.666666666666667,-1.1111111111111112],"name":"plane","children":[2,3,4,5,6]},{"children":[0,1,7]}],"bufferViews":[{"buffer":0,"byteOffset":0,"byteLength":288,"target":34962,"byteStride":12},{"buffer":0,"byteOffset":288,"byteLength":288,"target":34962,"byteStride":12},{"buffer":0,"byteOffset":576,"byteLength":192,"target":34962,"byteStride":8},{"buffer":0,"byteOffset":768,"byteLength":72,"target":34963},{"buffer":0,"byteOffset":840,"byteLength":48,"target":34962,"byteStride":12},{"buffer":0,"byteOffset":888,"byteLength":48,"target":34962,"byteStride":12},{"buffer":0,"byteOffset":936,"byteLength":32,"target":34962,"byteStride":8},{"buffer":0,"byteOffset":968,"byteLength":12,"target":34963},{"buffer":0,"byteOffset":980,"byteLength":48,"target":34962,"byteStride":12},{"buffer":0,"byteOffset":1028,"byteLength":48,"target":34962,"byteStride":12},{"buffer":0,"byteOffset":1076,"byteLength":32,"target":34962,"byteStride":8},{"buffer":0,"byteOffset":1108,"byteLength":12,"target":34963},{"buffer":0,"byteOffset":1120,"byteLength":48,"target":34962,"byteStride":12},{"buffer":0,"byteOffset":1168,"byteLength":48,"target":34962,"byteStride":12},{"buffer":0,"byteOffset":1216,"byteLength":32,"target":34962,"byteStride":8},{"buffer":0,"byteOffset":1248,"byteLength":12,"target":34963},{"buffer":0,"byteOffset":1260,"byteLength":48,"target":34962,"byteStride":12},{"buffer":0,"byteOffset":1308,"byteLength":48,"target":34962,"byteStride":12},{"buffer":0,"byteOffset":1356,"byteLength":32,"target":34962,"byteStride":8},{"buffer":0,"byteOffset":1388,"byteLength":12,"target":34963}],"buffers":[{"byteLength":1400,"uri":"data:application/octet-stream;base64,"}],"accessors":[{"bufferView":0,"componentType":5126,"count":24,"max":[6.666666507720947,-3.3333332538604736,6.666666507720947],"min":[2.222222328186035,-7.777777671813965,2.222222328186035],"type":"VEC3"},{"bufferView":1,"componentType":5126,"count":24,"max":[1,1,1],"min":[-1,-1,-1],"type":"VEC3"},{"bufferView":2,"componentType":5126,"count":24,"max":[0.5,0.5],"min":[0,0],"type":"VEC2"},{"bufferView":3,"componentType":5123,"count":36,"max":[23],"min":[0],"type":"SCALAR"},{"bufferView":4,"componentType":5126,"count":4,"max":[2.777777671813965,0,3.3333332538604736],"min":[-2.777777671813965,0,-3.3333332538604736],"type":"VEC3"},{"bufferView":5,"componentType":5126,"count":4,"max":[0,1,0],"min":[0,1,0],"type":"VEC3"},{"bufferView":6,"componentType":5126,"count":4,"max":[0.25,1.03125],"min":[0.125,0.75],"type":"VEC2"},{"bufferView":7,"componentType":5123,"count":6,"max":[3],"min":[0],"type":"SCALAR"},{"bufferView":8,"componentType":5126,"count":4,"max":[2.777777671813965,0,3.3333332538604736],"min":[-2.777777671813965,0,-3.3333332538604736],"type":"VEC3"},{"bufferView":9,"componentType":5126,"count":4,"max":[0,1,0],"min":[0,1,0],"type":"VEC3"},{"bufferView":10,"componentType":5126,"count":4,"max":[0.25,1.03125],"min":[0.125,0.75],"type":"VEC2"},{"bufferView":11,"componentType":5123,"count":6,"max":[3],"min":[0],"type":"SCALAR"},{"bufferView":12,"componentType":5126,"count":4,"max":[8.88888931274414,0,3.3333332538604736],"min":[-8.88888931274414,0,-3.3333332538604736],"type":"VEC3"},{"bufferView":13,"componentType":5126,"count":4,"max":[0,1,0],"min":[0,1,0],"type":"VEC3"},{"bufferView":14,"componentType":5126,"count":4,"max":[0.375,0.75],"min":[0,0.5],"type":"VEC2"},{"bufferView":15,"componentType":5123,"count":6,"max":[3],"min":[0],"type":"SCALAR"},{"bufferView":16,"componentType":5126,"count":4,"max":[8.88888931274414,0,3.3333332538604736],"min":[-8.88888931274414,0,-3.3333332538604736],"type":"VEC3"},{"bufferView":17,"componentType":5126,"count":4,"max":[0,1,0],"min":[0,1,0],"type":"VEC3"},{"bufferView":18,"componentType":5126,"count":4,"max":[0.375,0.75],"min":[0,0.5],"type":"VEC2"},{"bufferView":19,"componentType":5123,"count":6,"max":[3],"min":[0],"type":"SCALAR"}],"materials":[{"pbrMetallicRoughness":{"metallicFactor":0,"roughnessFactor":1,"baseColorTexture":{"index":0}},"alphaMode":"MASK","alphaCutoff":0.05,"doubleSided":true}],"textures":[{"sampler":0,"source":0,"name":"saturn.png"}],"samplers":[{"magFilter":9728,"minFilter":9728,"wrapS":33071,"wrapT":33071}],"images":[{"mimeType":"image/png","uri":"data:image/png;base64,"}],"meshes":[{"primitives":[{"mode":4,"attributes":{"POSITION":0,"NORMAL":1,"TEXCOORD_0":2},"indices":3,"material":0}]},{"primitives":[{"mode":4,"attributes":{"POSITION":4,"NORMAL":5,"TEXCOORD_0":6},"indices":7,"material":0}]},{"primitives":[{"mode":4,"attributes":{"POSITION":8,"NORMAL":9,"TEXCOORD_0":10},"indices":11,"material":0}]},{"primitives":[{"mode":4,"attributes":{"POSITION":12,"NORMAL":13,"TEXCOORD_0":14},"indices":15,"material":0}]},{"primitives":[{"mode":4,"attributes":{"POSITION":16,"NORMAL":17,"TEXCOORD_0":18},"indices":19,"material":0}]}]}